<svg xmlns="http://www.w3.org/2000/svg" xmlns:xlink="http://www.w3.org/1999/xlink" preserveAspectRatio="xMidYMid" width="36" height="36" viewBox="0 0 36 36">
  <defs>
    <style>
      .cls-1 {
        fill: #fff;
        fill-rule: evenodd;
      }
    </style>
  </defs>
  <path d="M21.956,2.607 L22.481,0.564 C28.801,2.191 33.808,7.198 35.436,13.518 L33.392,14.043 C31.957,8.468 27.531,4.042 21.956,2.607 ZM23.109,10.046 L28.796,7.203 L25.952,12.890 L23.751,12.248 L23.109,10.046 ZM36.000,18.000 L22.051,22.049 L18.000,36.000 L13.949,22.049 L-0.000,18.000 L13.949,13.949 L18.000,-0.000 L22.051,13.949 L36.000,18.000 ZM18.000,12.726 C15.092,12.726 12.727,15.092 12.727,18.000 C12.727,20.907 15.092,23.273 18.000,23.273 C20.907,23.273 23.273,20.907 23.273,18.000 C23.273,15.092 20.907,12.726 18.000,12.726 ZM18.000,21.163 C16.255,21.163 14.836,19.744 14.836,18.000 C14.836,16.255 16.255,14.835 18.000,14.835 C19.745,14.835 21.164,16.255 21.164,18.000 C21.164,19.744 19.745,21.163 18.000,21.163 ZM19.055,16.945 L16.945,16.945 L16.945,19.054 L19.055,19.054 L19.055,16.945 ZM10.048,12.890 L7.204,7.203 L12.891,10.046 L12.249,12.248 L10.048,12.890 ZM2.608,14.043 L0.564,13.518 C2.192,7.198 7.199,2.191 13.519,0.564 L14.044,2.607 C8.469,4.042 4.043,8.468 2.608,14.043 ZM12.249,23.750 L12.891,25.952 L7.204,28.796 L10.048,23.109 L12.249,23.750 ZM14.044,33.391 L13.519,35.434 C7.199,33.808 2.192,28.802 0.564,22.481 L2.608,21.955 C4.043,27.532 8.468,31.957 14.044,33.391 ZM25.952,23.109 L28.796,28.796 L23.109,25.952 L23.751,23.750 L25.952,23.109 ZM33.392,21.955 L35.436,22.481 C33.808,28.802 28.801,33.807 22.481,35.434 L21.956,33.391 C27.531,31.957 31.957,27.532 33.392,21.955 Z" class="cls-1"/>
</svg>
