<svg xmlns="http://www.w3.org/2000/svg" xmlns:xlink="http://www.w3.org/1999/xlink" preserveAspectRatio="xMidYMid" width="35.938" height="36" viewBox="0 0 35.938 36">
  <defs>
    <style>
      .cls-1 {
        fill: #fff;
        fill-rule: evenodd;
      }
    </style>
  </defs>
  <path d="M35.888,17.593 C35.719,18.068 35.198,18.315 34.726,18.146 C34.252,17.976 34.006,17.453 34.175,16.979 C34.193,16.931 34.215,16.885 34.238,16.842 C33.908,16.975 33.531,16.994 33.169,16.865 C32.426,16.598 32.022,15.804 32.224,15.052 C31.768,15.291 31.218,15.348 30.696,15.160 C29.961,14.897 29.488,14.228 29.434,13.494 C28.750,14.228 27.672,14.527 26.669,14.167 C25.956,13.911 25.423,13.373 25.152,12.722 C24.414,14.226 22.653,14.967 21.042,14.389 C19.309,13.767 18.407,11.854 19.026,10.116 C19.646,8.377 21.554,7.471 23.287,8.093 C24.334,8.469 25.077,9.316 25.365,10.312 C26.003,9.318 27.257,8.858 28.414,9.273 C29.524,9.671 30.194,10.752 30.127,11.876 C30.629,11.462 31.327,11.314 31.983,11.549 C32.976,11.906 33.494,13.003 33.138,14.000 C33.133,14.015 33.127,14.027 33.122,14.041 C33.449,13.911 33.824,13.893 34.183,14.022 C34.965,14.303 35.372,15.166 35.093,15.951 C35.034,16.117 34.947,16.265 34.843,16.395 C35.002,16.360 35.173,16.368 35.338,16.427 C35.811,16.597 36.058,17.119 35.888,17.593 ZM14.895,6.490 C13.285,7.068 11.524,6.327 10.785,4.823 C10.515,5.473 9.982,6.011 9.268,6.268 C8.265,6.627 7.188,6.329 6.503,5.595 C6.450,6.329 5.976,6.998 5.242,7.261 C4.719,7.449 4.169,7.392 3.714,7.153 C3.916,7.905 3.512,8.699 2.768,8.966 C2.407,9.096 2.029,9.077 1.699,8.943 C1.723,8.986 1.745,9.032 1.762,9.080 C1.932,9.555 1.685,10.077 1.212,10.246 C0.739,10.416 0.218,10.169 0.049,9.695 C-0.120,9.220 0.127,8.698 0.600,8.528 C0.765,8.469 0.935,8.461 1.095,8.496 C0.990,8.366 0.904,8.218 0.844,8.053 C0.565,7.268 0.972,6.404 1.755,6.123 C2.114,5.995 2.488,6.011 2.816,6.143 C2.811,6.129 2.804,6.115 2.799,6.102 C2.444,5.104 2.961,4.007 3.955,3.651 C4.611,3.416 5.309,3.564 5.811,3.976 C5.743,2.852 6.414,1.772 7.524,1.374 C8.680,0.959 9.935,1.419 10.572,2.413 C10.860,1.417 11.603,0.570 12.651,0.194 C14.384,-0.428 16.291,0.478 16.911,2.217 C17.531,3.955 16.628,5.869 14.895,6.490 ZM7.313,7.775 C10.837,6.585 14.637,8.491 15.824,12.027 C17.009,15.559 14.896,17.624 16.099,21.211 C17.051,24.046 15.687,26.818 12.862,27.773 C10.037,28.727 7.564,27.556 6.117,24.583 C5.398,23.107 3.345,18.159 2.880,16.401 C1.816,12.377 3.790,8.966 7.313,7.775 ZM20.114,19.926 C21.301,16.391 25.101,14.484 28.624,15.675 C32.148,16.865 34.122,20.276 33.058,24.299 C32.592,26.057 30.539,31.005 29.821,32.483 C28.373,35.454 25.900,36.626 23.075,35.672 C20.251,34.717 18.887,31.944 19.838,29.110 C21.042,25.523 18.929,23.457 20.114,19.926 Z" class="cls-1"/>
</svg>
