<svg xmlns="http://www.w3.org/2000/svg" xmlns:xlink="http://www.w3.org/1999/xlink" preserveAspectRatio="xMidYMid" width="31" height="36" viewBox="0 0 31 36">
  <defs>
    <style>
      .cls-1 {
        fill: #fff;
        fill-rule: evenodd;
      }
    </style>
  </defs>
  <path d="M30.892,9.881 C29.835,11.863 28.711,13.809 27.536,15.905 C26.106,13.393 24.761,11.029 23.321,8.500 C25.674,8.500 27.853,8.475 30.031,8.514 C30.751,8.527 31.220,9.264 30.892,9.881 ZM26.011,18.578 C24.401,21.365 22.812,24.166 21.238,26.974 C21.014,27.374 20.758,27.526 20.306,27.519 C18.699,27.493 17.092,27.509 15.485,27.509 C13.905,27.509 12.324,27.492 10.744,27.519 C10.268,27.527 9.988,27.387 9.745,26.951 C8.187,24.164 6.608,21.389 5.010,18.624 C4.751,18.176 4.740,17.840 5.003,17.386 C6.615,14.599 8.186,11.787 9.808,9.006 C9.955,8.753 10.364,8.514 10.654,8.511 C13.867,8.476 17.081,8.497 20.294,8.480 C20.741,8.477 21.005,8.611 21.232,9.016 C22.806,11.824 24.397,14.624 26.005,17.412 C26.248,17.834 26.258,18.149 26.011,18.578 ZM15.462,13.549 C13.087,13.587 11.072,15.668 11.113,18.041 C11.154,20.458 13.189,22.486 15.538,22.449 C17.920,22.413 19.921,20.347 19.884,17.959 C19.847,15.543 17.811,13.511 15.462,13.549 ZM15.460,20.329 C14.220,20.302 13.223,19.278 13.212,18.021 C13.200,16.735 14.232,15.677 15.499,15.677 C16.764,15.677 17.807,16.740 17.794,18.018 C17.782,19.295 16.710,20.356 15.460,20.329 ZM11.772,5.511 C12.649,3.961 13.525,2.410 14.415,0.868 C15.072,-0.270 15.908,-0.289 16.555,0.829 C17.589,2.616 18.598,4.419 19.677,6.320 C16.859,6.320 14.169,6.320 11.374,6.320 C11.527,6.008 11.636,5.752 11.772,5.511 ZM0.106,9.879 C-0.220,9.271 0.253,8.526 0.967,8.514 C3.145,8.476 5.324,8.500 7.669,8.500 C6.251,10.999 4.899,13.381 3.465,15.908 C2.289,13.810 1.166,11.862 0.106,9.879 ZM3.468,20.103 C4.889,22.601 6.242,24.980 7.681,27.509 C6.316,27.509 5.118,27.509 3.920,27.509 C2.973,27.508 2.024,27.533 1.078,27.495 C0.210,27.461 -0.253,26.745 0.150,26.002 C1.200,24.068 2.304,22.164 3.468,20.103 ZM18.972,30.932 C18.172,32.343 17.379,33.758 16.564,35.160 C15.926,36.258 15.092,36.283 14.466,35.207 C13.426,33.421 12.419,31.616 11.320,29.681 C14.171,29.681 16.847,29.681 19.659,29.681 C19.397,30.159 19.190,30.548 18.972,30.932 ZM30.823,25.942 C31.237,26.699 30.821,27.472 29.981,27.487 C27.826,27.525 25.671,27.500 23.333,27.500 C24.744,25.010 26.093,22.631 27.530,20.098 C28.690,22.149 29.779,24.032 30.823,25.942 Z" class="cls-1"/>
</svg>
