<svg xmlns="http://www.w3.org/2000/svg" xmlns:xlink="http://www.w3.org/1999/xlink" preserveAspectRatio="xMidYMid" width="39" height="36" viewBox="0 0 39 36">
  <defs>
    <style>
      .cls-1 {
        fill: #fff;
        fill-rule: evenodd;
      }
    </style>
  </defs>
  <path d="M29.627,10.344 L34.125,4.909 L30.875,-0.000 L21.125,-0.000 L17.875,4.909 L22.373,10.344 C16.960,11.926 13.000,16.948 13.000,22.909 C13.000,25.806 13.947,28.475 15.529,30.644 C16.591,30.291 17.551,29.734 18.369,29.002 C17.046,27.325 16.250,25.211 16.250,22.909 C16.250,20.016 17.506,17.421 19.489,15.622 C21.480,17.419 22.750,20.010 22.750,22.909 C22.750,28.322 18.376,32.727 13.000,32.727 C7.624,32.727 3.250,28.322 3.250,22.909 C3.250,17.495 7.624,13.090 13.000,13.090 C13.670,13.090 14.325,13.159 14.957,13.290 C15.787,12.323 16.739,11.469 17.790,10.747 C16.306,10.154 14.693,9.818 13.000,9.818 C5.820,9.818 -0.000,15.679 -0.000,22.909 C-0.000,30.138 5.820,36.000 13.000,36.000 C15.373,36.000 17.590,35.348 19.505,34.231 C21.417,35.348 23.630,36.000 26.000,36.000 C33.180,36.000 39.000,30.138 39.000,22.909 C39.000,16.948 35.039,11.926 29.627,10.344 ZM28.215,9.494 L29.294,6.545 L30.655,6.545 L28.215,9.494 ZM30.704,2.691 L32.100,4.800 L32.010,4.909 L29.892,4.909 L30.704,2.691 ZM29.359,1.636 L28.568,3.798 L27.364,1.636 L29.359,1.636 ZM25.998,2.529 L27.322,4.909 L24.666,4.909 L25.998,2.529 ZM24.632,1.636 L23.430,3.784 L22.645,1.636 L24.632,1.636 ZM19.900,4.800 L21.298,2.688 L22.109,4.909 L19.990,4.909 L19.900,4.800 ZM22.707,6.545 L23.785,9.494 L21.345,6.545 L22.707,6.545 ZM24.439,6.545 L27.563,6.545 L26.359,9.836 C26.238,9.832 26.121,9.818 26.000,9.818 C25.879,9.818 25.762,9.832 25.642,9.836 L24.439,6.545 ZM26.000,32.727 C24.707,32.727 23.483,32.450 22.354,31.986 C24.607,29.632 26.000,26.437 26.000,22.909 C26.000,19.370 24.590,16.175 22.323,13.821 C23.458,13.353 24.699,13.090 26.000,13.090 C31.376,13.090 35.750,17.495 35.750,22.909 C35.750,28.322 31.376,32.727 26.000,32.727 Z" class="cls-1"/>
</svg>
